<svg xmlns="http://www.w3.org/2000/svg" xmlns:xlink="http://www.w3.org/1999/xlink" width="500" zoomAndPan="magnify" viewBox="0 0 375 374.999991" height="500" preserveAspectRatio="xMidYMid meet" version="1.0"><defs><clipPath id="f0db134ecb"><path d="M 103.125 103.125 L 271.875 103.125 L 271.875 271.875 L 103.125 271.875 Z M 103.125 103.125 " clip-rule="nonzero"/></clipPath><clipPath id="f653623fb7"><path d="M 145.3125 60.9375 L 314.0625 60.9375 L 314.0625 229.6875 L 145.3125 229.6875 Z M 145.3125 60.9375 " clip-rule="nonzero"/></clipPath><clipPath id="21812c00dd"><path d="M 60.9375 145.3125 L 229.6875 145.3125 L 229.6875 314.0625 L 60.9375 314.0625 Z M 60.9375 145.3125 " clip-rule="nonzero"/></clipPath></defs><g clip-path="url(#f0db134ecb)"><path stroke-linecap="butt" transform="matrix(0.75, 0, 0, 0.75, 103.124998, 103.124993)" fill="none" stroke-linejoin="miter" d="M 0.00000302917 0.00000902917 L 225.000018 0.00000902917 L 225.000018 225.000024 L 0.00000302917 225.000024 Z M 0.00000302917 0.00000902917 " stroke="#053c49" stroke-width="40" stroke-opacity="1" stroke-miterlimit="4"/></g><g clip-path="url(#f653623fb7)"><path stroke-linecap="butt" transform="matrix(0.75, 0, 0, 0.75, 145.312495, 60.937496)" fill="none" stroke-linejoin="miter" d="M 0.00000672292 0.00000533542 L 225.000021 0.00000533542 L 225.000021 225.00002 L 0.00000672292 225.00002 Z M 0.00000672292 0.00000533542 " stroke="#053c49" stroke-width="40" stroke-opacity="1" stroke-miterlimit="4"/></g><g clip-path="url(#21812c00dd)"><path stroke-linecap="butt" transform="matrix(0.75, 0, 0, 0.75, 60.9375, 145.31249)" fill="none" stroke-linejoin="miter" d="M -0.000000664583 0.0000127229 L 225.000014 0.0000127229 L 225.000014 225.000027 L -0.000000664583 225.000027 Z M -0.000000664583 0.0000127229 " stroke="#053c49" stroke-width="40" stroke-opacity="1" stroke-miterlimit="4"/></g></svg>